HIERARCHY
ROOT pelvis
{
	OFFSET 0.000000 0.000000 0.000000
	CHANNELS 6 Xposition Yposition Zposition Xrotation Yrotation Zrotation
	JOINT l_hip
	{
		OFFSET 0.195211 -0.245059 -0.022011
		CHANNELS 3 Xrotation Yrotation Zrotation
		JOINT l_knee
		{
			OFFSET 0.083896 -0.996307 -0.018298
			CHANNELS 3 Xrotation Yrotation Zrotation
			JOINT l_ankle
			{
				OFFSET -0.031606 -1.048662 -0.119000
				CHANNELS 3 Xrotation Yrotation Zrotation
				JOINT l_foot
				{
					OFFSET 0.063841 -0.149483 0.312863
					CHANNELS 3 Xrotation Yrotation Zrotation
					End Site
					{
						OFFSET 0.000000 0.000000 0.000000
					}
				}
			}
		}
	}
	JOINT r_hip
	{
		OFFSET -0.188785 -0.243354 -0.013119
		CHANNELS 3 Xrotation Yrotation Zrotation
		JOINT r_knee
		{
			OFFSET -0.098896 -1.013926 -0.025127
			CHANNELS 3 Xrotation Yrotation Zrotation
			JOINT r_ankle
			{
				OFFSET 0.038376 -1.049454 -0.114596
				CHANNELS 3 Xrotation Yrotation Zrotation
				JOINT r_foot
				{
					OFFSET -0.060300 -0.126955 0.322518
					CHANNELS 3 Xrotation Yrotation Zrotation
					End Site
					{
						OFFSET 0.000000 0.000000 0.000000
					}
				}
			}
		}
	}
	JOINT spine1
	{
		OFFSET -0.006861 0.282462 -0.060688
		CHANNELS 3 Xrotation Yrotation Zrotation
		JOINT spine2
		{
			OFFSET 0.009796 0.349212 -0.004686
			CHANNELS 3 Xrotation Yrotation Zrotation
			JOINT spine3
			{
				OFFSET 0.005545 0.134239 0.076232
				CHANNELS 3 Xrotation Yrotation Zrotation
				JOINT neck
				{
					OFFSET -0.005369 0.569656 -0.136135
					CHANNELS 3 Xrotation Yrotation Zrotation
					JOINT head
					{
						OFFSET 0.009621 0.170484 0.137338
						CHANNELS 3 Xrotation Yrotation Zrotation
						End Site
						{
							OFFSET 0.000000 0.000000 0.000000
						}
					}
				}
				JOINT l_collar
				{
					OFFSET 0.205981 0.322192 -0.100872
					CHANNELS 3 Xrotation Yrotation Zrotation
					JOINT l_shoulder
					{
						OFFSET 0.233388 0.086823 -0.019950
						CHANNELS 3 Xrotation Yrotation Zrotation
						JOINT l_elbow
						{
							OFFSET 0.687295 -0.032736 -0.075278
							CHANNELS 3 Xrotation Yrotation Zrotation
							JOINT l_wrist
							{
								OFFSET 0.651109 0.024639 0.000120
								CHANNELS 3 Xrotation Yrotation Zrotation
								JOINT l_hand
								{
									OFFSET 0.217934 -0.026487 -0.036124
									CHANNELS 3 Xrotation Yrotation Zrotation
									End Site
									{
										OFFSET 0.000000 0.000000 0.000000
									}
								}
							}
						}
					}
				}
				JOINT r_collar
				{
					OFFSET -0.210726 0.316244 -0.114374
					CHANNELS 3 Xrotation Yrotation Zrotation
					JOINT r_shoulder
					{
						OFFSET -0.244017 0.089684 -0.026814
						CHANNELS 3 Xrotation Yrotation Zrotation
						JOINT r_elbow
						{
							OFFSET -0.672913 -0.035979 -0.055153
							CHANNELS 3 Xrotation Yrotation Zrotation
							JOINT r_wrist
							{
								OFFSET -0.670689 0.023586 -0.009661
								CHANNELS 3 Xrotation Yrotation Zrotation
								JOINT r_hand
								{
									OFFSET -0.219937 -0.019827 -0.028502
									CHANNELS 3 Xrotation Yrotation Zrotation
									End Site
									{
										OFFSET 0.000000 0.000000 0.000000
									}
								}
							}
						}
					}
				}
			}
		}
	}
}
MOTION
Frames: 16
Frame Time: 0.016667
0.000000 0.000000 0.000000 0.000000 0.000000 0.000000 1.478100 -0.293578 11.862355 0.131605 -5.384894 -4.672550 0.000000 0.000000 0.000000 0.000000 0.000000 0.000000 -1.552988 -14.248618 -5.113946 6.432707 -12.076991 4.649371 0.000000 0.000000 0.000000 0.000000 0.000000 0.000000 3.571733 2.094689 2.054439 -18.752499 0.565339 -1.505435 3.589898 3.478609 4.835200 12.323546 -9.617371 2.506005 -5.364054 4.150716 19.413141 -14.248596 10.134860 4.896768 -43.805867 -16.033250 -55.244588 -70.848756 -32.966793 10.341393 0.000000 0.000000 0.000000 0.000000 0.000000 0.000000 -1.358268 -10.183199 -8.418171 -13.256968 6.410598 19.187147 12.634488 -7.091450 -18.700011 0.000000 0.000000 0.000000 0.000000 0.000000 0.000000 
0.000000 0.000000 0.000000 0.000000 0.000000 0.000000 1.522093 -0.279664 11.840749 0.147446 -5.390160 -4.672512 0.000000 0.000000 0.000000 0.000000 0.000000 0.000000 -1.512659 -14.256162 -5.125810 6.428546 -12.062957 4.632431 0.000000 0.000000 0.000000 0.000000 0.000000 0.000000 3.571103 2.086541 2.081187 -18.723399 0.591547 -1.540579 3.558011 3.475440 4.825057 12.310364 -9.624356 2.522352 -5.421507 4.238229 19.433202 -14.242361 10.098941 4.772895 -43.851380 -16.026312 -55.295222 -70.819171 -33.366544 10.453978 0.000000 0.000000 0.000000 0.000000 0.000000 0.000000 -1.333629 -10.129513 -8.380146 -13.275394 6.344540 19.212238 12.624480 -7.092344 -18.760962 0.000000 0.000000 0.000000 0.000000 0.000000 0.000000 
0.000000 0.000000 0.000000 0.000000 0.000000 0.000000 1.590970 -0.262858 11.796479 0.156009 -5.403562 -4.663449 0.000000 0.000000 0.000000 0.000000 0.000000 0.000000 -1.449865 -14.279200 -5.144337 6.407352 -12.038353 4.606967 0.000000 0.000000 0.000000 0.000000 0.000000 0.000000 3.554002 2.081923 2.115171 -18.706774 0.622982 -1.581665 3.532406 3.467994 4.812432 12.288048 -9.619131 2.538825 -5.495217 4.340863 19.455562 -14.246201 10.061236 4.621305 -43.915002 -16.040720 -55.356080 -70.797155 -33.799160 10.574816 0.000000 0.000000 0.000000 0.000000 0.000000 0.000000 -1.310824 -10.081297 -8.321844 -13.287153 6.276370 19.199776 12.616254 -7.090306 -18.812191 0.000000 0.000000 0.000000 0.000000 0.000000 0.000000 
0.000000 0.000000 0.000000 0.000000 0.000000 0.000000 1.630235 -0.256852 11.754341 0.158610 -5.413236 -4.648970 0.000000 0.000000 0.000000 0.000000 0.000000 0.000000 -1.416328 -14.303384 -5.159846 6.383261 -12.012136 4.590041 0.000000 0.000000 0.000000 0.000000 0.000000 0.000000 3.512671 2.089284 2.133184 -18.722678 0.642906 -1.596828 3.539880 3.462856 4.804156 12.261466 -9.593309 2.541580 -5.533889 4.376857 19.453660 -14.259357 10.063218 4.557488 -43.951712 -16.066763 -55.382229 -70.786962 -33.911589 10.615675 0.000000 0.000000 0.000000 0.000000 0.000000 0.000000 -1.305307 -10.082204 -8.283204 -13.278829 6.269496 19.140798 12.633039 -7.076254 -18.793218 0.000000 0.000000 0.000000 0.000000 0.000000 0.000000 
0.000000 0.000000 0.000000 0.000000 0.000000 0.000000 1.643981 -0.259017 11.722944 0.164708 -5.409403 -4.634926 0.000000 0.000000 0.000000 0.000000 0.000000 0.000000 -1.406486 -14.309731 -5.167950 6.361297 -11.991975 4.576371 0.000000 0.000000 0.000000 0.000000 0.000000 0.000000 3.458786 2.096585 2.146760 -18.742377 0.655750 -1.598007 3.555415 3.465056 4.800354 12.229443 -9.563364 2.537823 -5.549476 4.386762 19.433089 -14.270285 10.082006 4.548922 -43.962120 -16.074938 -55.397412 -70.761177 -33.881118 10.619624 0.000000 0.000000 0.000000 0.000000 0.000000 0.000000 -1.300903 -10.098053 -8.270245 -13.267998 6.285545 19.085911 12.669854 -7.055927 -18.753486 0.000000 0.000000 0.000000 0.000000 0.000000 0.000000 
0.000000 0.000000 0.000000 0.000000 0.000000 0.000000 1.658935 -0.263840 11.690090 0.176932 -5.402301 -4.620541 0.000000 0.000000 0.000000 0.000000 0.000000 0.000000 -1.399380 -14.302655 -5.178654 6.341607 -11.969394 4.564306 0.000000 0.000000 0.000000 0.000000 0.000000 0.000000 3.383841 2.102008 2.168788 -18.746283 0.671527 -1.599695 3.567383 3.472410 4.794740 12.200672 -9.536564 2.526006 -5.574101 4.396044 19.399261 -14.274808 10.092285 4.548181 -43.956222 -16.074103 -55.406639 -70.695939 -33.835187 10.628515 0.000000 0.000000 0.000000 0.000000 0.000000 0.000000 -1.281840 -10.100415 -8.270024 -13.258789 6.301932 19.028636 12.724835 -7.023514 -18.701683 0.000000 0.000000 0.000000 0.000000 0.000000 0.000000 
0.000000 0.000000 0.000000 0.000000 0.000000 0.000000 1.687790 -0.261364 11.669731 0.187638 -5.403145 -4.615614 0.000000 0.000000 0.000000 0.000000 0.000000 0.000000 -1.379565 -14.289278 -5.190399 6.336599 -11.954607 4.559235 0.000000 0.000000 0.000000 0.000000 0.000000 0.000000 3.332860 2.102505 2.189667 -18.723143 0.684897 -1.607649 3.563024 3.480858 4.786975 12.196192 -9.529218 2.512864 -5.610183 4.407653 19.373796 -14.269704 10.076241 4.540729 -43.943923 -16.069856 -55.404881 -70.619724 -33.837223 10.654350 0.000000 0.000000 0.000000 0.000000 0.000000 0.000000 -1.254178 -10.074248 -8.279668 -13.260494 6.303588 19.004025 12.758141 -6.999369 -18.675034 0.000000 0.000000 0.000000 0.000000 0.000000 0.000000 
0.000000 0.000000 0.000000 0.000000 0.000000 0.000000 1.724914 -0.251371 11.658807 0.193484 -5.411456 -4.616872 0.000000 0.000000 0.000000 0.000000 0.000000 0.000000 -1.349668 -14.281951 -5.201038 6.340550 -11.946153 4.557210 0.000000 0.000000 0.000000 0.000000 0.000000 0.000000 3.310216 2.101716 2.202922 -18.694987 0.693519 -1.617672 3.551978 3.487522 4.780024 12.204729 -9.531788 2.503110 -5.645476 4.417572 19.361386 -14.264238 10.050654 4.532777 -43.936380 -16.067776 -55.400480 -70.566791 -33.860522 10.680846 0.000000 0.000000 0.000000 0.000000 0.000000 0.000000 -1.233995 -10.040902 -8.292272 -13.267247 6.299051 19.002651 12.766147 -6.984745 -18.668485 0.000000 0.000000 0.000000 0.000000 0.000000 0.000000 
0.000000 0.000000 0.000000 0.000000 0.000000 0.000000 1.774612 -0.235371 11.649444 0.196892 -5.426044 -4.621290 0.000000 0.000000 0.000000 0.000000 0.000000 0.000000 -1.307310 -14.277644 -5.213530 6.348724 -11.939625 4.556188 0.000000 0.000000 0.000000 0.000000 0.000000 0.000000 3.294107 2.100939 2.213983 -18.661353 0.700441 -1.629979 3.536511 3.494032 4.772342 12.222593 -9.536959 2.494534 -5.687062 4.426167 19.353832 -14.259506 10.016392 4.526586 -43.933689 -16.067289 -55.393443 -70.526520 -33.885282 10.708703 0.000000 0.000000 0.000000 0.000000 0.000000 0.000000 -1.215606 -10.001503 -8.310006 -13.275630 6.292987 19.012284 12.762928 -6.967308 -18.667562 0.000000 0.000000 0.000000 0.000000 0.000000 0.000000 
0.000000 0.000000 0.000000 0.000000 0.000000 0.000000 1.852599 -0.207910 11.638284 0.194764 -5.452079 -4.629796 0.000000 0.000000 0.000000 0.000000 0.000000 0.000000 -1.238772 -14.278275 -5.231340 6.361005 -11.933727 4.556310 0.000000 0.000000 0.000000 0.000000 0.000000 0.000000 3.279506 2.100255 2.225396 -18.614263 0.704986 -1.646139 3.514314 3.500575 4.763190 12.257359 -9.543510 2.485818 -5.745331 4.434270 19.350575 -14.256290 9.967280 4.524939 -43.937046 -16.068093 -55.379438 -70.503504 -33.901481 10.739305 0.000000 0.000000 0.000000 0.000000 0.000000 0.000000 -1.197337 -9.953188 -8.338744 -13.283232 6.283429 19.036561 12.749442 -6.934876 -18.669008 0.000000 0.000000 0.000000 0.000000 0.000000 0.000000 
0.000000 0.000000 0.000000 0.000000 0.000000 0.000000 2.003957 -0.151947 11.618435 0.169719 -5.504351 -4.645869 0.000000 0.000000 0.000000 0.000000 0.000000 0.000000 -1.105874 -14.297668 -5.263373 6.376671 -11.930848 4.560641 0.000000 0.000000 0.000000 0.000000 0.000000 0.000000 3.264624 2.104327 2.233539 -18.535796 0.703184 -1.669086 3.479148 3.507937 4.750256 12.335508 -9.544708 2.477834 -5.841852 4.436357 19.357720 -14.263318 9.890575 4.540421 -43.959358 -16.073168 -55.338427 -70.555772 -33.851987 10.764172 0.000000 0.000000 0.000000 0.000000 0.000000 0.000000 -1.183305 -9.898934 -8.391476 -13.276200 6.268726 19.090938 12.728364 -6.847172 -18.670545 0.000000 0.000000 0.000000 0.000000 0.000000 0.000000 
0.000000 0.000000 0.000000 0.000000 0.000000 0.000000 2.104314 -0.117172 11.599396 0.136990 -5.532527 -4.649301 0.000000 0.000000 0.000000 0.000000 0.000000 0.000000 -1.026434 -14.327178 -5.281759 6.378160 -11.926493 4.555152 0.000000 0.000000 0.000000 0.000000 0.000000 0.000000 3.236417 2.116909 2.221126 -18.508862 0.696322 -1.672456 3.466318 3.512981 4.745385 12.379344 -9.531182 2.474524 -5.877539 4.418994 19.364384 -14.288216 9.858592 4.583195 -43.996730 -16.080542 -55.314145 -70.680372 -33.720615 10.739171 0.000000 0.000000 0.000000 0.000000 0.000000 0.000000 -1.198147 -9.894641 -8.427461 -13.253113 6.280506 19.128357 12.732869 -6.756686 -18.671857 0.000000 0.000000 0.000000 0.000000 0.000000 0.000000 
0.000000 0.000000 0.000000 0.000000 0.000000 0.000000 2.171664 -0.106324 11.579572 0.099233 -5.534514 -4.641864 0.000000 0.000000 0.000000 0.000000 0.000000 0.000000 -0.988722 -14.345274 -5.287692 6.370083 -11.920986 4.535718 0.000000 0.000000 0.000000 0.000000 0.000000 0.000000 3.183832 2.133702 2.199879 -18.506870 0.687224 -1.661028 3.465941 3.520795 4.746350 12.404569 -9.517231 2.465413 -5.878023 4.393612 19.367513 -14.315130 9.847421 4.635422 -44.036158 -16.084123 -55.312113 -70.823398 -33.583770 10.699000 0.000000 0.000000 0.000000 0.000000 0.000000 0.000000 -1.215018 -9.907826 -8.443941 -13.234855 6.304257 19.164503 12.752356 -6.692705 -18.707621 0.000000 0.000000 0.000000 0.000000 0.000000 0.000000 
0.000000 0.000000 0.000000 0.000000 0.000000 0.000000 2.203597 -0.118057 11.565797 0.071385 -5.515980 -4.631970 0.000000 0.000000 0.000000 0.000000 0.000000 0.000000 -0.986121 -14.342297 -5.284600 6.362525 -11.916881 4.511685 0.000000 0.000000 0.000000 0.000000 0.000000 0.000000 3.129677 2.147535 2.179374 -18.512327 0.681039 -1.643941 3.468057 3.530102 4.748268 12.409893 -9.510506 2.455073 -5.855816 4.368450 19.365808 -14.332797 9.844535 4.667694 -44.066147 -16.088164 -55.325659 -70.915407 -33.510829 10.673179 0.000000 0.000000 0.000000 0.000000 0.000000 0.000000 -1.220662 -9.914198 -8.429313 -13.242917 6.330034 19.192603 12.758375 -6.702891 -18.780816 0.000000 0.000000 0.000000 0.000000 0.000000 0.000000 
0.000000 0.000000 0.000000 0.000000 0.000000 0.000000 2.223598 -0.144965 11.556459 0.050413 -5.483452 -4.623183 0.000000 0.000000 0.000000 0.000000 0.000000 0.000000 -0.997872 -14.322452 -5.276634 6.359590 -11.913278 4.482362 0.000000 0.000000 0.000000 0.000000 0.000000 0.000000 3.072194 2.160308 2.156961 -18.516087 0.676160 -1.622060 3.468930 3.542934 4.749556 12.402941 -9.509366 2.443034 -5.818550 4.338570 19.361408 -14.344223 9.841052 4.686408 -44.090611 -16.095139 -55.353044 -70.967052 -33.488818 10.660324 0.000000 0.000000 0.000000 0.000000 0.000000 0.000000 -1.217387 -9.906713 -8.386624 -13.283578 6.362060 19.223160 12.737274 -6.792422 -18.901582 0.000000 0.000000 0.000000 0.000000 0.000000 0.000000 
0.000000 0.000000 0.000000 0.000000 0.000000 0.000000 2.240654 -0.180249 11.553205 0.039554 -5.443734 -4.619579 0.000000 0.000000 0.000000 0.000000 0.000000 0.000000 -1.011304 -14.290350 -5.266878 6.364605 -11.909641 4.451698 0.000000 0.000000 0.000000 0.000000 0.000000 0.000000 3.018058 2.171485 2.133512 -18.512619 0.671903 -1.597525 3.467332 3.559484 4.749285 12.385921 -9.511836 2.431253 -5.771279 4.303099 19.356053 -14.349163 9.834370 4.693220 -44.104894 -16.105161 -55.391636 -70.970462 -33.515441 10.660162 0.000000 0.000000 0.000000 0.000000 0.000000 0.000000 -1.208021 -9.882352 -8.319982 -13.360044 6.400912 19.257841 12.678645 -6.963950 -19.063313 0.000000 0.000000 0.000000 0.000000 0.000000 0.000000 
